# xmcd
#
# Track frame offsets: 
#        182
#        14565
#        16995
#        23650
#        35507
#        46790
#        58047
#        73590
#        84812
#        98190
#        110907
#        124735
#        135342
#        144985
#        156932
#        168615
#        181005
#        189807
#        200770
#        209837
#        219017
#        231940
#        242302
#        254785
#        266227
#        277197
#        289572
#        300605
#        310050
#        323155
#
# Disc length: 4477 seconds
#
# Revision: 3
# Processed by: cddbd v1.4PL0 Copyright (c) Steve Scherf et al.
# Submitted via: ExactAudioCopy v0.90b3
#
DISCID=af117b1e
DTITLE=Hank Williams Jr. - Living Proof: The MGM Recordings 1963-1975 
DTITLE=Disc 1 of 3
DYEAR=1992
DGENRE=Country
TTITLE0=Standing In The Shadows
TTITLE1=Your Cheatin' Heart
TTITLE2=Ramblin' Man
TTITLE3=Long Gone Lonesome Blues
TTITLE4=Mule Skinner Blues
TTITLE5=Endless Sleep
TTITLE6=The Blizzard
TTITLE7=Slow Rider
TTITLE8=The River
TTITLE9=Nobody's Fool
TTITLE10=I Threw Away The Rose
TTITLE11=Least Of All, You
TTITLE12=Blue's My Name
TTITLE13=Cry Cry Darling
TTITLE14=It's Written All Over Your Face
TTITLE15=In The First Place
TTITLE16=Meter Reader Maid
TTITLE17=Splish Splash
TTITLE18=Hang On Sally
TTITLE19=I Can't Take It No Longer
TTITLE20=The Old Ryman
TTITLE21=Tennessee Waltz
TTITLE22=This Heart Of Mine
TTITLE23=I Love You A Thousand Ways
TTITLE24=Slowly
TTITLE25=I Wonder Where You Are Tonight
TTITLE26=Alabam
TTITLE27=Pan American
TTITLE28=Please Make Up Your Mind
TTITLE29=I Was With Red Foley (The Night He Passed Away)
EXTD=\nURL: http://musiccentral.msn.com/MCGen/ReEntry?theurl=http%3A//
EXTD=musiccentral.msn.com/Search/DoFullSearch%3FArtists%3Don%26Albums%
EXTD=3D%26Songs%3D%26ArticleTitles%3D%26FullText%3D%26strInput%3DHank%
EXTD=2520Williams%2520Jr%252E "DoFullSearch?Artists=on&Albums=&Songs=&
EXTD=Articl..."
EXTT0=
EXTT1=
EXTT2=
EXTT3=
EXTT4=
EXTT5=
EXTT6=
EXTT7=
EXTT8=
EXTT9=
EXTT10=
EXTT11=
EXTT12=
EXTT13=
EXTT14=
EXTT15=
EXTT16=
EXTT17=
EXTT18=
EXTT19=
EXTT20=
EXTT21=
EXTT22=
EXTT23=
EXTT24=
EXTT25=
EXTT26=
EXTT27=
EXTT28=
EXTT29=
PLAYORDER=
